<?xml version="1.0" standalone="no"?>
<!DOCTYPE svg PUBLIC "-//W3C//DTD SVG 20010904//EN"
 "http://www.w3.org/TR/2001/REC-SVG-20010904/DTD/svg10.dtd">
<svg version="1.0" xmlns="http://www.w3.org/2000/svg"
 width="507.000000pt" height="507.000000pt" viewBox="0 0 507.000000 507.000000"
 preserveAspectRatio="xMidYMid meet">
<metadata>
Created by potrace 1.14, written by Peter Selinger 2001-2017
</metadata>
<g transform="translate(0.000000,507.000000) scale(0.100000,-0.100000)"
fill="#000000" stroke="none">
<path d="M2423 4744 c-3 -8 -1 -20 6 -27 8 -8 11 -4 11 16 0 30 -7 35 -17 11z"/>
<path d="M680 4720 c0 -5 5 -10 10 -10 6 0 10 5 10 10 0 6 -4 10 -10 10 -5 0
-10 -4 -10 -10z"/>
<path d="M680 4640 c0 -16 5 -30 10 -30 6 0 10 14 10 30 0 17 -4 30 -10 30 -5
0 -10 -13 -10 -30z"/>
<path d="M2427 4623 c-11 -10 -8 -51 3 -58 6 -4 10 8 10 29 0 37 -2 41 -13 29z"/>
<path d="M678 4578 c-2 -12 -13 -28 -26 -34 -13 -6 -23 -15 -23 -19 0 -4 10
-13 23 -19 13 -6 24 -22 26 -34 4 -27 18 -29 25 -3 3 11 19 29 36 39 l32 19
-31 13 c-18 7 -33 22 -36 36 -8 30 -22 31 -26 2z m31 -42 c17 -20 -13 -43 -34
-26 -12 10 -13 16 -4 26 6 8 15 14 19 14 4 0 13 -6 19 -14z"/>
<path d="M2320 4560 c0 -16 5 -30 10 -30 6 0 10 14 10 30 0 17 -4 30 -10 30
-5 0 -10 -13 -10 -30z"/>
<path d="M2526 4583 c-9 -10 -7 -53 3 -53 11 0 21 49 11 55 -4 2 -10 2 -14 -2z"/>
<path d="M1128 4530 c-10 -18 -25 -30 -38 -30 -28 0 -25 -17 6 -24 16 -4 30
-19 38 -38 l13 -31 14 29 c8 16 24 33 37 39 29 13 28 21 -3 29 -15 4 -27 16
-31 31 -8 32 -15 31 -36 -5z m31 -56 c-14 -13 -17 -13 -28 0 -10 12 -10 18 1
30 11 12 15 13 28 0 12 -12 12 -16 -1 -30z"/>
<path d="M495 4530 c-3 -5 1 -10 10 -10 9 0 13 5 10 10 -3 6 -8 10 -10 10 -2
0 -7 -4 -10 -10z"/>
<path d="M558 4523 c7 -3 16 -2 19 1 4 3 -2 6 -13 5 -11 0 -14 -3 -6 -6z"/>
<path d="M788 4523 c6 -2 18 -2 25 0 6 3 1 5 -13 5 -14 0 -19 -2 -12 -5z"/>
<path d="M2230 4501 c0 -12 5 -21 10 -21 6 0 10 6 10 14 0 8 -4 18 -10 21 -5
3 -10 -3 -10 -14z"/>
<path d="M2625 4507 c-4 -10 -5 -21 -1 -24 10 -10 18 4 13 24 -4 17 -4 17 -12
0z"/>
<path d="M900 4475 c0 -8 5 -15 10 -15 6 0 10 7 10 15 0 8 -4 15 -10 15 -5 0
-10 -7 -10 -15z"/>
<path d="M2420 4430 c0 -33 4 -60 10 -60 6 0 10 27 10 60 0 33 -4 60 -10 60
-6 0 -10 -27 -10 -60z"/>
<path d="M1370 4463 c0 -14 19 -38 25 -32 8 8 -5 39 -16 39 -5 0 -9 -3 -9 -7z"/>
<path d="M3476 4454 c-9 -22 3 -32 14 -14 12 19 12 30 1 30 -5 0 -12 -7 -15
-16z"/>
<path d="M2330 4416 c0 -25 5 -48 10 -51 6 -4 10 13 10 44 0 28 -4 51 -10 51
-5 0 -10 -20 -10 -44z"/>
<path d="M2520 4409 c0 -31 4 -48 10 -44 6 3 10 26 10 51 0 24 -4 44 -10 44
-5 0 -10 -23 -10 -51z"/>
<path d="M2140 4435 c0 -41 13 -95 22 -95 6 0 8 18 3 48 -7 48 -25 82 -25 47z"/>
<path d="M2706 4413 c-8 -54 -8 -79 3 -67 13 13 24 104 13 104 -5 0 -12 -17
-16 -37z"/>
<path d="M2240 4401 c0 -23 5 -41 10 -41 6 0 10 15 10 34 0 19 -4 38 -10 41
-6 4 -10 -10 -10 -34z"/>
<path d="M2610 4394 c0 -27 4 -43 10 -39 6 3 10 24 10 46 0 21 -4 39 -10 39
-5 0 -10 -21 -10 -46z"/>
<path d="M680 4406 c0 -14 5 -28 10 -31 6 -4 10 7 10 24 0 17 -4 31 -10 31 -5
0 -10 -11 -10 -24z"/>
<path d="M900 4355 c0 -19 5 -35 10 -35 6 0 10 16 10 35 0 19 -4 35 -10 35 -5
0 -10 -16 -10 -35z"/>
<path d="M2056 4363 c8 -32 24 -55 24 -32 0 26 -12 59 -21 59 -5 0 -6 -12 -3
-27z"/>
<path d="M2798 4377 c-12 -29 -10 -63 3 -50 6 6 9 23 7 39 -2 24 -4 26 -10 11z"/>
<path d="M1540 4372 c0 -19 19 -52 30 -52 15 0 12 12 -10 40 -11 14 -20 19
-20 12z"/>
<path d="M3302 4355 c-14 -31 -15 -35 -4 -35 8 0 32 43 32 55 0 15 -19 1 -28
-20z"/>
<path d="M1430 4351 c0 -5 9 -19 20 -32 22 -28 28 -6 6 24 -14 18 -26 22 -26
8z"/>
<path d="M1660 4345 c0 -8 5 -15 10 -15 6 0 10 7 10 15 0 8 -4 15 -10 15 -5 0
-10 -7 -10 -15z"/>
<path d="M3190 4344 c0 -8 5 -12 10 -9 6 3 10 10 10 16 0 5 -4 9 -10 9 -5 0
-10 -7 -10 -16z"/>
<path d="M3410 4339 c-6 -11 -9 -25 -7 -32 2 -7 11 3 21 21 9 17 12 32 7 32
-6 0 -15 -9 -21 -21z"/>
<path d="M1770 4343 c0 -18 34 -93 41 -93 12 0 12 2 -11 54 -17 42 -30 58 -30
39z"/>
<path d="M3066 4303 c-19 -55 -19 -53 -7 -53 5 0 16 21 25 47 19 55 19 53 7
53 -5 0 -16 -21 -25 -47z"/>
<path d="M1870 4336 c0 -17 24 -65 30 -61 11 7 -8 65 -21 65 -5 0 -9 -2 -9 -4z"/>
<path d="M1970 4326 c0 -8 5 -18 10 -21 6 -3 10 1 10 9 0 8 -4 18 -10 21 -5 3
-10 -1 -10 -9z"/>
<path d="M2880 4321 c0 -25 6 -27 13 -6 4 8 2 17 -3 20 -6 4 -10 -3 -10 -14z"/>
<path d="M2969 4314 c-11 -30 -3 -46 11 -24 10 16 13 50 5 50 -3 0 -10 -12
-16 -26z"/>
<path d="M443 4277 l-21 -23 23 -22 c19 -18 25 -20 32 -9 4 8 17 18 27 24 19
10 18 11 -2 17 -12 4 -22 14 -22 22 0 20 -12 17 -37 -9z"/>
<path d="M680 4290 c0 -5 5 -10 10 -10 6 0 10 5 10 10 0 6 -4 10 -10 10 -5 0
-10 -4 -10 -10z"/>
<path d="M1690 4290 c0 -6 7 -27 17 -48 11 -26 17 -32 20 -20 2 9 -3 30 -12
47 -16 32 -25 39 -25 21z"/>
<path d="M3151 4262 c-12 -23 -17 -43 -12 -46 10 -6 47 71 38 80 -3 3 -15 -12
-26 -34z"/>
<path d="M900 4259 c0 -27 -62 -89 -88 -89 -33 0 -34 -17 -2 -24 39 -7 79 -47
86 -86 8 -40 20 -38 28 5 7 38 45 73 88 82 31 6 28 23 -4 23 -26 0 -88 62 -88
89 0 12 -4 21 -10 21 -5 0 -10 -9 -10 -21z m40 -71 l32 -31 -31 -31 -31 -31
-31 31 -31 31 29 30 c15 17 29 31 30 32 1 0 16 -13 33 -31z"/>
<path d="M1360 4274 c0 -7 9 -22 20 -35 10 -13 19 -19 20 -13 0 7 -9 22 -20
35 -10 13 -19 19 -20 13z"/>
<path d="M3475 4254 c-20 -30 -10 -48 11 -20 13 18 19 46 10 46 -2 0 -11 -12
-21 -26z"/>
<path d="M1600 4260 c0 -19 43 -95 47 -83 2 6 -5 30 -17 52 -20 41 -30 50 -30
31z"/>
<path d="M3241 4231 c-23 -45 -25 -51 -13 -51 12 0 47 78 39 86 -3 3 -15 -12
-26 -35z"/>
<path d="M1500 4240 c0 -15 54 -110 63 -110 14 0 7 20 -24 70 -31 50 -39 59
-39 40z"/>
<path d="M3347 4227 c-9 -15 -24 -38 -32 -52 -17 -27 -20 -49 -6 -40 15 9 62
97 58 109 -2 6 -11 -2 -20 -17z"/>
<path d="M3813 4184 c-22 -23 -22 -24 -3 -34 11 -6 20 -18 20 -26 0 -11 9 -7
29 13 27 26 28 29 10 37 -10 5 -19 15 -19 23 0 19 -12 15 -37 -13z m37 -18 c0
-3 -4 -8 -10 -11 -5 -3 -10 -1 -10 4 0 6 5 11 10 11 6 0 10 -2 10 -4z"/>
<path d="M730 4160 c0 -5 7 -10 16 -10 8 0 12 5 9 10 -3 6 -10 10 -16 10 -5 0
-9 -4 -9 -10z"/>
<path d="M1070 4160 c0 -5 9 -10 20 -10 11 0 20 5 20 10 0 6 -9 10 -20 10 -11
0 -20 -4 -20 -10z"/>
<path d="M1150 4160 c0 -5 5 -10 10 -10 6 0 10 5 10 10 0 6 -4 10 -10 10 -5 0
-10 -4 -10 -10z"/>
<path d="M1320 4156 c0 -8 5 -18 10 -21 6 -3 10 1 10 9 0 8 -4 18 -10 21 -5 3
-10 -1 -10 -9z"/>
<path d="M1430 4165 c0 -13 55 -86 58 -77 4 12 -37 82 -49 82 -5 0 -9 -2 -9
-5z"/>
<path d="M3400 4135 c-31 -50 -19 -65 13 -16 29 44 32 51 18 51 -5 0 -19 -16
-31 -35z"/>
<path d="M3531 4156 c-8 -10 -9 -16 -1 -21 5 -3 13 1 16 10 9 22 -1 29 -15 11z"/>
<path d="M3976 4134 c-4 -16 -19 -30 -39 -39 l-32 -13 28 -11 c15 -6 32 -22
39 -36 14 -32 24 -32 32 0 4 15 16 27 31 31 32 8 32 18 0 32 -14 7 -30 23 -35
37 -12 32 -16 31 -24 -1z m26 -66 c-17 -17 -47 9 -30 29 10 12 13 12 27 -1 11
-12 12 -19 3 -28z"/>
<path d="M1360 4106 c0 -14 41 -76 51 -76 5 0 9 4 9 8 0 11 -59 79 -60 68z"/>
<path d="M2233 4103 c-28 -11 -11 -23 25 -17 20 3 87 9 147 13 l110 8 -135 1
c-74 0 -141 -2 -147 -5z"/>
<path d="M3476 4077 c-27 -35 -32 -47 -18 -47 10 0 56 69 49 76 -3 3 -17 -10
-31 -29z"/>
<path d="M2538 4093 c6 -2 18 -2 25 0 6 3 1 5 -13 5 -14 0 -19 -2 -12 -5z"/>
<path d="M2110 4074 c-35 -14 -35 -14 20 -8 66 7 103 24 50 23 -19 -1 -51 -8
-70 -15z"/>
<path d="M2638 4083 c7 -3 16 -2 19 1 4 3 -2 6 -13 5 -11 0 -14 -3 -6 -6z"/>
<path d="M2691 4076 c2 -2 22 -6 44 -9 28 -5 34 -4 20 3 -19 8 -73 14 -64 6z"/>
<path d="M649 4038 c-8 -20 -27 -39 -47 -48 l-33 -14 33 -16 c18 -8 40 -30 50
-49 l17 -33 15 35 c10 25 26 41 48 50 l33 14 -38 16 c-28 12 -39 23 -43 47 -8
39 -17 38 -35 -2z m40 -84 l-20 -22 -22 22 -23 21 21 22 20 22 23 -21 22 -22
-21 -22z"/>
<path d="M2000 4051 c-30 -9 -64 -21 -75 -27 -11 -6 -33 -14 -50 -18 -16 -4
-38 -16 -48 -27 -23 -24 -21 -24 46 5 30 14 81 32 113 42 56 15 83 29 73 37
-2 3 -29 -3 -59 -12z"/>
<path d="M1276 4048 c21 -35 59 -76 66 -72 10 6 -49 84 -63 84 -6 0 -7 -6 -3
-12z"/>
<path d="M3551 4023 c-30 -36 -41 -60 -22 -48 18 11 73 85 63 85 -6 0 -24 -17
-41 -37z"/>
<path d="M2260 4033 c-80 -8 -286 -62 -320 -83 -35 -22 5 -20 77 4 114 37 231
56 378 62 166 6 181 25 18 22 -65 0 -134 -3 -153 -5z"/>
<path d="M2540 4025 c0 -10 11 -15 35 -15 39 0 47 14 13 24 -36 9 -48 7 -48
-9z"/>
<path d="M2956 4011 c-3 -4 18 -17 46 -29 50 -21 51 -21 30 -2 -26 24 -69 42
-76 31z"/>
<path d="M900 3975 c0 -14 5 -25 10 -25 6 0 10 11 10 25 0 14 -4 25 -10 25 -5
0 -10 -11 -10 -25z"/>
<path d="M2745 3990 c3 -5 13 -10 21 -10 8 0 14 5 14 10 0 6 -9 10 -21 10 -11
0 -17 -4 -14 -10z"/>
<path d="M2812 3979 c2 -6 48 -28 103 -49 172 -65 242 -105 393 -222 60 -47
91 -58 62 -23 -22 26 -172 136 -210 154 -19 9 -37 19 -40 22 -11 15 -151 78
-224 103 -90 30 -89 30 -84 15z"/>
<path d="M1230 3963 c0 -5 11 -20 25 -33 14 -13 25 -19 25 -13 0 5 -11 20 -25
33 -14 13 -25 19 -25 13z"/>
<path d="M3608 3945 c-26 -34 -22 -42 7 -15 25 23 32 40 18 40 -5 0 -16 -11
-25 -25z"/>
<path d="M1742 3940 c-40 -9 -152 -82 -135 -87 7 -3 25 4 40 15 16 11 52 31
81 46 28 14 52 29 52 31 0 3 -1 5 -2 4 -2 -1 -18 -5 -36 -9z"/>
<path d="M900 3905 c0 -8 5 -15 10 -15 6 0 10 7 10 15 0 8 -4 15 -10 15 -5 0
-10 -7 -10 -15z"/>
<path d="M1835 3909 c-10 -15 1 -23 20 -15 9 3 13 10 10 16 -8 13 -22 13 -30
-1z"/>
<path d="M3185 3890 c3 -5 13 -10 21 -10 8 0 12 5 9 10 -3 6 -13 10 -21 10 -8
0 -12 -4 -9 -10z"/>
<path d="M1730 3854 c-49 -30 -73 -54 -55 -54 18 0 134 73 129 81 -8 13 -13
11 -74 -27z"/>
<path d="M1190 3865 c7 -9 15 -13 17 -11 7 7 -7 26 -19 26 -6 0 -6 -6 2 -15z"/>
<path d="M3667 3873 c-4 -3 -7 -11 -7 -17 0 -6 5 -5 12 2 6 6 9 14 7 17 -3 3
-9 2 -12 -2z"/>
<path d="M3276 3842 c-3 -5 8 -19 24 -30 32 -24 40 -27 40 -13 0 14 -58 53
-64 43z"/>
<path d="M1096 3832 c-3 -5 8 -19 24 -31 17 -12 30 -18 30 -13 0 15 -48 54
-54 44z"/>
<path d="M3740 3815 c-13 -14 -21 -27 -18 -30 2 -3 15 6 28 20 13 14 21 27 18
30 -2 3 -15 -6 -28 -20z"/>
<path d="M1539 3814 c-12 -14 -11 -16 5 -13 11 2 21 10 24 17 5 17 -13 15 -29
-4z"/>
<path d="M1532 3714 c-57 -47 -106 -92 -109 -100 -13 -36 12 -23 74 38 38 35
87 77 111 93 37 24 56 55 35 55 -5 0 -54 -39 -111 -86z"/>
<path d="M1001 3783 c0 -11 53 -52 75 -59 11 -3 4 9 -18 30 -36 34 -59 45 -57
29z"/>
<path d="M3817 3763 c-34 -27 -46 -43 -29 -43 12 0 88 69 76 70 -6 0 -27 -12
-47 -27z"/>
<path d="M3397 3753 c-4 -3 35 -50 86 -102 51 -53 107 -114 124 -136 17 -22
34 -37 38 -34 8 9 -98 139 -177 217 -35 34 -67 59 -71 55z"/>
<path d="M902 3739 c2 -7 10 -15 17 -17 8 -3 12 1 9 9 -2 7 -10 15 -17 17 -8
3 -12 -1 -9 -9z"/>
<path d="M3945 3739 c-4 -6 -5 -13 -2 -16 7 -7 27 6 27 18 0 12 -17 12 -25 -2z"/>
<path d="M1352 3645 c-82 -85 -152 -173 -152 -190 0 -16 21 5 77 75 33 41 87
102 121 135 34 33 62 63 62 68 0 20 -25 -1 -108 -88z"/>
<path d="M960 3701 c0 -11 48 -51 61 -51 19 0 7 16 -26 38 -19 12 -35 18 -35
13z"/>
<path d="M592 3688 c3 -7 13 -15 24 -17 16 -3 17 -1 5 13 -16 19 -34 21 -29 4z"/>
<path d="M790 3692 c0 -11 41 -34 48 -28 3 4 -3 13 -14 21 -21 16 -34 19 -34
7z"/>
<path d="M3862 3680 c-13 -11 -22 -24 -20 -30 2 -6 19 3 38 19 21 18 29 30 20
30 -8 0 -26 -8 -38 -19z"/>
<path d="M4039 3680 c-13 -10 -19 -19 -13 -20 7 0 22 9 35 20 13 10 19 19 13
20 -7 0 -22 -9 -35 -20z"/>
<path d="M4250 3690 c-8 -5 -12 -12 -9 -15 8 -8 39 5 39 16 0 11 -11 11 -30
-1z"/>
<path d="M3392 3643 c2 -9 9 -18 16 -21 18 -6 15 25 -4 32 -11 4 -14 1 -12
-11z"/>
<path d="M896 3631 c-3 -5 12 -20 34 -35 43 -28 50 -31 50 -17 0 13 -78 62
-84 52z"/>
<path d="M3928 3613 c-33 -22 -49 -43 -33 -43 16 0 85 52 80 60 -7 12 -3 14
-47 -17z"/>
<path d="M720 3610 c28 -22 40 -25 40 -10 0 11 -33 30 -52 30 -7 0 -2 -9 12
-20z"/>
<path d="M4128 3619 c-18 -10 -25 -29 -10 -29 4 0 18 9 32 20 27 21 10 28 -22
9z"/>
<path d="M602 3589 c-15 -6 -21 -13 -16 -21 6 -9 3 -9 -9 1 -24 19 -22 9 26
-124 l43 -118 94 -39 c52 -21 98 -38 102 -38 16 0 7 17 -14 28 -21 11 -19 11
12 6 19 -3 93 -19 163 -36 106 -25 126 -32 116 -44 -16 -19 11 -28 58 -19 29
5 62 -3 169 -41 73 -26 131 -51 128 -56 -3 -4 -41 -8 -86 -8 -69 0 -93 5 -170
36 -81 33 -117 39 -92 14 8 -8 328 -140 349 -144 6 -1 15 -5 22 -9 6 -4 55
-25 109 -46 54 -22 92 -42 84 -45 -8 -3 -53 -12 -100 -21 -109 -21 -120 -24
-120 -37 0 -13 54 -5 180 26 56 14 99 20 105 15 5 -5 17 -9 27 -9 36 0 17 18
-44 43 l-63 26 53 1 c41 0 52 3 52 16 0 14 -10 15 -73 9 -71 -6 -76 -5 -196
43 -125 49 -135 62 -52 62 20 0 42 5 49 12 9 9 12 9 12 0 0 -6 10 -11 23 -11
12 1 77 -21 144 -48 95 -38 120 -52 111 -61 -9 -9 -3 -12 27 -11 56 1 187 -52
202 -82 12 -24 12 -24 -46 -27 -41 -2 -74 3 -110 18 -61 24 -61 24 -61 6 0 -8
12 -17 26 -20 25 -7 25 -7 5 -24 -45 -38 -32 -133 17 -118 24 8 32 27 34 80 1
20 4 36 7 36 18 -1 30 -19 33 -50 2 -28 8 -36 27 -38 16 -3 30 4 42 19 l17 22
83 -36 c48 -20 86 -31 88 -26 5 16 -7 23 -103 60 -67 26 -82 35 -63 37 15 2
39 -6 56 -19 23 -17 48 -22 120 -27 72 -4 94 -8 101 -21 11 -22 1 -38 -28 -42
-12 -2 -21 -8 -20 -14 8 -27 346 5 443 42 22 8 51 17 65 19 89 15 130 28 130
42 0 8 -6 12 -13 9 -6 -2 -46 -12 -87 -22 -41 -9 -88 -20 -105 -25 -31 -7 -64
0 -124 27 l-35 16 40 14 c123 45 154 77 154 157 0 20 5 36 11 36 6 0 56 -11
111 -25 55 -14 103 -24 106 -21 2 3 -1 12 -8 21 -7 8 -10 21 -7 29 8 21 -16
49 -39 45 -10 -2 -23 -14 -29 -27 -11 -25 -37 -29 -55 -7 -9 10 -23 14 -44 10
-38 -7 -53 2 -57 34 -4 24 0 25 130 53 74 15 139 32 145 38 16 16 -18 13 -159
-16 l-127 -26 -28 30 c-45 49 -124 53 -300 15 -61 -13 -85 -14 -130 -5 -68 14
-80 15 -80 2 0 -5 16 -12 35 -16 44 -8 52 -20 20 -28 -29 -7 -33 -23 -7 -28
14 -3 13 -5 -5 -10 -16 -4 -23 -2 -23 8 0 17 -16 19 -26 3 -3 -6 -1 -14 5 -18
7 -5 3 -12 -13 -19 -21 -9 -24 -9 -19 3 11 30 -28 14 -71 -29 l-44 -44 -94 31
c-51 17 -107 36 -125 44 -17 7 -38 13 -47 13 -9 0 -24 4 -34 9 -9 6 -42 18
-72 27 -30 9 -57 20 -60 24 -3 4 -41 19 -85 34 -44 14 -135 46 -203 71 -68 25
-132 47 -143 48 -10 2 -22 6 -25 10 -4 4 -17 7 -29 7 -11 0 -25 4 -31 9 -5 5
-38 19 -73 32 l-64 23 35 12 c19 6 50 19 68 29 31 16 36 16 162 -15 120 -29
156 -32 132 -11 -11 10 -195 54 -317 76 -48 9 -100 20 -115 26 -18 7 -28 7
-30 0 -2 -6 -10 -11 -18 -11 -8 0 -11 6 -8 15 4 10 0 15 -11 15 -9 0 -13 -4
-10 -10 8 -13 2 -13 -29 1 -13 6 -22 17 -20 23 2 6 -17 23 -44 38 -26 15 -56
36 -66 47 -21 23 -22 23 -54 10z m1962 -453 c-8 -20 12 -28 26 -11 17 21 34
19 56 -7 10 -13 12 -17 4 -10 -21 18 -47 15 -63 -8 -8 -11 -16 -17 -20 -14 -3
3 -11 3 -18 -2 -9 -5 -7 -11 6 -21 17 -12 17 -13 2 -13 -22 0 -22 -26 1 -39
11 -7 12 -10 3 -11 -9 0 -11 -7 -8 -22 6 -22 3 -23 -45 -22 -61 2 -69 13 -64
82 6 72 28 100 79 105 23 2 43 4 44 5 1 1 0 -4 -3 -12z m-131 -13 c-7 -2 -19
-2 -25 0 -7 3 -2 5 12 5 14 0 19 -2 13 -5z m-46 -9 c-3 -3 -12 -4 -19 -1 -8 3
-5 6 6 6 11 1 17 -2 13 -5z m243 -65 c0 -4 -7 -9 -15 -13 -11 -4 -15 2 -15 27
1 30 1 31 15 13 8 -11 15 -23 15 -27z m2 -76 c11 4 14 -1 10 -21 l-5 -25 -18
22 c-11 13 -19 28 -19 35 0 6 4 5 9 -3 5 -8 15 -11 23 -8z m68 1 c0 -8 -5 -12
-10 -9 -6 4 -8 11 -5 16 9 14 15 11 15 -7z m-50 -74 c10 0 24 8 29 18 9 14 10
15 11 1 0 -9 -8 -23 -18 -32 -16 -15 -20 -15 -40 -1 -12 8 -27 25 -33 37 l-11
22 21 -22 c12 -13 30 -23 41 -23z"/>
<path d="M1364 3548 c-72 -78 -98 -118 -75 -118 8 0 121 135 121 145 0 13 -19
2 -46 -27z"/>
<path d="M3466 3572 c-3 -6 16 -33 42 -61 26 -28 47 -51 45 -51 -4 0 47 -80
65 -102 22 -27 34 -10 15 20 -34 53 -121 167 -141 185 -11 10 -23 14 -26 9z"/>
<path d="M820 3560 c0 -13 58 -42 73 -37 7 2 -7 14 -30 26 -24 12 -43 17 -43
11z"/>
<path d="M3991 3542 c-65 -40 -65 -62 0 -24 29 17 55 36 57 41 5 16 -9 12 -57
-17z"/>
<path d="M4148 3514 c-30 -16 -35 -24 -15 -24 16 0 54 27 47 33 -3 3 -17 -1
-32 -9z"/>
<path d="M4020 3448 c-45 -28 -44 -27 -38 -34 8 -8 88 34 88 46 0 15 -11 12
-50 -12z"/>
<path d="M4140 3400 c-8 -5 -11 -12 -8 -16 10 -9 38 3 38 16 0 12 -10 13 -30
0z"/>
<path d="M4055 3363 c-23 -13 -26 -18 -13 -21 20 -4 58 14 58 28 0 14 -10 12
-45 -7z"/>
<path d="M1344 3348 c-3 -5 -4 -11 -3 -12 12 -11 370 -92 374 -85 3 4 1 10 -4
14 -25 15 -362 91 -367 83z"/>
<path d="M3755 3310 c-4 -6 -15 -10 -25 -7 -30 8 -323 -56 -328 -72 -5 -15
-20 -17 220 35 156 34 288 45 288 23 0 -6 18 -32 41 -59 l40 -48 97 -5 c53 -3
109 -9 125 -12 16 -5 27 -3 27 3 0 5 -24 16 -52 23 -29 6 -69 25 -88 40 -69
55 -147 83 -246 87 -64 3 -94 1 -99 -8z"/>
<path d="M4135 3290 c-3 -5 -1 -10 4 -10 6 0 11 5 11 10 0 6 -2 10 -4 10 -3 0
-8 -4 -11 -10z"/>
<path d="M3828 3273 c-10 -2 -18 -11 -18 -18 0 -17 42 -105 49 -105 24 1 105
28 108 36 2 5 -13 29 -33 52 -35 42 -56 48 -106 35z"/>
<path d="M862 3248 c2 -6 51 -31 109 -55 57 -24 110 -47 118 -50 9 -4 12 -1 9
8 -4 12 -208 108 -231 109 -5 0 -7 -5 -5 -12z"/>
<path d="M1732 3249 c5 -15 75 -35 85 -25 11 11 -10 24 -51 32 -30 5 -38 4
-34 -7z"/>
<path d="M3343 3233 c-7 -2 -13 -9 -13 -14 0 -15 53 -6 58 9 4 12 -21 15 -45
5z"/>
<path d="M1852 3214 c9 -9 21 -13 27 -9 16 10 3 25 -22 25 -20 0 -20 -1 -5
-16z"/>
<path d="M3522 3223 c-37 -7 -51 -43 -58 -139 -8 -108 0 -120 70 -110 57 9 72
28 80 104 5 51 3 62 -9 62 -8 0 -15 -9 -15 -20 0 -11 -4 -20 -8 -20 -4 0 -13
-13 -19 -30 -13 -36 -37 -47 -59 -29 -13 11 -15 25 -10 73 7 69 17 83 66 88
31 3 35 1 32 -19 -2 -16 2 -23 13 -23 12 0 16 8 13 33 -3 29 -6 32 -38 33 -19
1 -45 0 -58 -3z m63 -192 c-3 -12 -10 -21 -15 -21 -4 0 -3 11 3 24 14 29 22
27 12 -3z"/>
<path d="M3265 3209 c-4 -6 -5 -13 -2 -16 7 -7 27 6 27 18 0 12 -17 12 -25 -2z"/>
<path d="M1070 3200 c-12 -8 -12 -10 3 -16 21 -8 35 2 21 16 -5 5 -15 6 -24 0z"/>
<path d="M1920 3200 c0 -5 10 -12 23 -15 12 -2 62 -14 110 -26 77 -18 111 -20
96 -4 -7 7 -191 55 -211 55 -10 0 -18 -4 -18 -10z"/>
<path d="M3119 3185 c-97 -21 -109 -25 -109 -36 0 -7 10 -9 23 -6 12 3 58 12
101 21 44 9 84 20 90 26 13 13 -32 11 -105 -5z"/>
<path d="M725 3182 c6 -6 24 -14 40 -18 21 -4 27 -3 20 4 -5 6 -23 14 -40 18
-21 4 -27 3 -20 -4z"/>
<path d="M4275 3150 c-3 -5 12 -18 33 -29 56 -29 97 -66 112 -101 17 -40 8
-46 -34 -26 -40 19 -149 21 -246 5 -36 -6 -78 -12 -95 -15 -16 -2 -76 -13
-132 -25 -86 -18 -103 -25 -103 -40 0 -11 -6 -19 -12 -19 -7 0 -23 -3 -36 -6
-18 -5 -21 -3 -16 10 4 11 0 16 -14 16 -26 0 -39 -19 -21 -31 12 -7 11 -9 -1
-9 -8 0 -26 -3 -40 -6 -19 -4 -22 -3 -10 5 26 18 1 24 -52 13 -156 -33 -440
-92 -444 -92 -3 0 -2 -9 1 -20 5 -16 2 -20 -14 -20 -15 0 -19 4 -14 16 5 14 1
16 -18 12 -373 -78 -439 -94 -439 -104 0 -7 6 -15 13 -17 6 -3 2 -6 -10 -6
-17 -1 -21 3 -16 15 5 15 1 16 -33 10 -45 -9 -67 -26 -44 -34 14 -5 -89 -32
-175 -46 -29 -5 -36 -4 -25 3 8 6 30 11 48 11 23 0 32 5 32 16 0 12 -6 15 -22
10 -13 -3 -120 -26 -238 -50 -260 -54 -310 -66 -310 -77 0 -4 12 -9 28 -11 15
-2 -53 -20 -152 -41 -98 -21 -180 -36 -182 -34 -3 2 9 7 26 10 28 6 43 27 19
27 -15 0 -363 -72 -368 -76 -2 -2 2 -10 9 -19 11 -13 8 -15 -21 -14 -19 0 -28
3 -21 6 36 15 0 20 -101 16 -137 -7 -205 9 -256 59 -31 30 -61 83 -61 108 0 5
23 10 53 10 71 1 196 24 276 51 78 27 74 25 67 37 -3 5 -29 1 -61 -10 l-56
-19 -79 25 c-83 27 -462 130 -517 141 -36 7 -54 25 -26 25 22 0 50 17 42 25
-7 6 -157 -23 -179 -35 -11 -6 18 -24 103 -64 65 -31 121 -56 124 -56 3 0 56
-24 119 -54 101 -49 114 -58 114 -80 0 -14 10 -51 21 -83 60 -159 343 -325
632 -369 144 -22 226 -14 562 56 160 34 401 84 536 112 l246 51 51 -23 c29
-13 52 -27 52 -31 0 -3 24 -25 53 -47 28 -23 88 -70 132 -106 44 -36 85 -66
91 -66 7 0 14 -6 17 -14 3 -8 36 -39 74 -69 37 -30 102 -82 143 -116 172 -141
292 -232 302 -229 6 2 -19 29 -55 59 l-66 54 54 3 c40 2 55 7 55 17 0 12 -16
15 -76 15 -80 0 -94 7 -189 92 l-30 28 28 0 c15 0 27 5 27 10 0 6 -3 10 -7 11
-5 0 -24 2 -44 3 -35 2 -66 21 -174 111 -28 24 -29 25 -7 25 12 0 22 5 22 10
0 6 -6 10 -14 10 -8 0 -18 -4 -21 -10 -10 -16 -19 -12 -51 18 -16 15 -56 50
-89 77 -83 68 -82 67 -65 65 34 -5 70 1 70 11 0 6 -15 10 -32 9 -63 -4 -75 0
-123 37 -46 36 -47 38 -24 44 57 16 158 9 224 -16 36 -13 75 -31 87 -39 20
-14 19 -15 -16 -18 -20 -2 -35 -7 -34 -13 2 -5 21 -9 43 -7 40 3 41 3 53 -42
7 -27 26 -59 47 -80 l36 -36 -41 0 c-23 0 -40 -5 -40 -11 0 -9 29 -10 103 -5
l102 7 64 -65 c36 -36 63 -68 60 -70 -2 -3 -26 -6 -53 -8 -31 -2 -51 -8 -54
-17 -4 -12 8 -13 70 -7 l75 7 57 -61 c64 -70 96 -126 96 -170 0 -25 -4 -30
-25 -30 -17 0 -25 -6 -25 -16 0 -15 10 -16 76 -10 72 6 277 65 298 86 21 21
-4 19 -64 -5 -118 -46 -115 -47 -200 44 -41 44 -97 105 -125 136 -27 32 -78
87 -112 123 l-61 67 105 17 c96 15 199 47 231 71 16 12 13 17 57 -83 38 -87
51 -108 60 -99 2 3 -16 51 -40 107 -44 99 -45 103 -28 128 24 37 21 128 -7
192 -28 64 -41 75 -98 82 -34 4 -47 10 -53 27 -7 20 -4 23 29 31 252 59 335
88 445 154 127 76 217 189 217 272 0 42 -37 113 -74 140 -51 39 -105 66 -111
56z m-78 -176 c-3 -3 -12 -4 -19 -1 -8 3 -5 6 6 6 11 1 17 -2 13 -5z m-570
-110 c-3 -3 -12 -4 -19 -1 -8 3 -5 6 6 6 11 1 17 -2 13 -5z m-40 -10 c-3 -3
-12 -4 -19 -1 -8 3 -5 6 6 6 11 1 17 -2 13 -5z m-380 -80 c-3 -3 -12 -4 -19
-1 -8 3 -5 6 6 6 11 1 17 -2 13 -5z m-2612 -40 c191 -42 285 -76 285 -104 0
-14 -68 -32 -92 -24 -13 4 -50 19 -83 35 -33 15 -91 41 -130 58 -176 79 -176
78 20 35z m2518 19 c-7 -2 -19 -2 -25 0 -7 3 -2 5 12 5 14 0 19 -2 13 -5z
m-46 -9 c-3 -3 -12 -4 -19 -1 -8 3 -5 6 6 6 11 1 17 -2 13 -5z m-44 -11 c-7
-2 -19 -2 -25 0 -7 3 -2 5 12 5 14 0 19 -2 13 -5z m-46 -9 c-3 -3 -12 -4 -19
-1 -8 3 -5 6 6 6 11 1 17 -2 13 -5z m-50 -10 c-3 -3 -12 -4 -19 -1 -8 3 -5 6
6 6 11 1 17 -2 13 -5z m-44 -11 c-7 -2 -19 -2 -25 0 -7 3 -2 5 12 5 14 0 19
-2 13 -5z m-46 -9 c-3 -3 -12 -4 -19 -1 -8 3 -5 6 6 6 11 1 17 -2 13 -5z
m-100 -20 c-3 -3 -12 -4 -19 -1 -8 3 -5 6 6 6 11 1 17 -2 13 -5z m-90 -20 c-3
-3 -12 -4 -19 -1 -8 3 -5 6 6 6 11 1 17 -2 13 -5z m-284 -61 c-7 -2 -19 -2
-25 0 -7 3 -2 5 12 5 14 0 19 -2 13 -5z m-46 -9 c-3 -3 -12 -4 -19 -1 -8 3 -5
6 6 6 11 1 17 -2 13 -5z m-82 -19 c-27 -7 -59 -13 -70 -13 -11 0 3 6 30 13 28
7 59 13 70 13 11 0 -2 -6 -30 -13z m-102 -22 c-7 -2 -19 -2 -25 0 -7 3 -2 5
12 5 14 0 19 -2 13 -5z m-50 -10 c-7 -2 -19 -2 -25 0 -7 3 -2 5 12 5 14 0 19
-2 13 -5z m-46 -9 c-3 -3 -12 -4 -19 -1 -8 3 -5 6 6 6 11 1 17 -2 13 -5z m-44
-11 c-7 -2 -19 -2 -25 0 -7 3 -2 5 12 5 14 0 19 -2 13 -5z m1752 -14 c11 -16
2 -20 -87 -35 -131 -23 -220 -53 -213 -72 3 -8 0 -19 -7 -24 -20 -12 -28 -10
-22 7 4 9 0 15 -8 15 -21 0 -29 -11 -19 -24 7 -8 -4 -19 -32 -34 -23 -13 -34
-17 -24 -9 29 24 20 40 -12 21 -29 -17 -30 -17 -54 12 -14 16 -25 34 -26 39
-1 6 106 33 236 61 272 59 260 57 268 43z m45 -64 c0 -8 4 -15 9 -15 5 0 14 7
21 15 15 19 21 19 45 1 18 -13 18 -14 -6 -9 -19 4 -31 -1 -42 -16 -8 -12 -20
-21 -27 -19 -7 2 -15 -3 -17 -9 -3 -7 4 -14 14 -14 16 -1 16 -2 1 -6 -10 -2
-18 -13 -18 -24 0 -11 7 -19 18 -19 13 0 14 -2 3 -9 -8 -5 -12 -18 -9 -28 5
-17 -1 -20 -47 -22 -47 -2 -53 0 -58 21 -10 38 0 114 18 142 14 21 25 26 56
26 28 0 39 -4 39 -15z m-2230 -15 c-14 -4 -34 -8 -45 -8 -16 0 -15 2 5 8 14 4
34 8 45 8 16 0 15 -2 -5 -8z m2067 4 c-3 -3 -12 -4 -19 -1 -8 3 -5 6 6 6 11 1
17 -2 13 -5z m-40 -10 c-3 -3 -12 -4 -19 -1 -8 3 -5 6 6 6 11 1 17 -2 13 -5z
m-2117 -14 c-14 -4 -36 -8 -50 -8 -22 0 -22 1 5 8 17 4 39 8 50 8 16 0 15 -2
-5 -8z m-87 -17 c-7 -2 -19 -2 -25 0 -7 3 -2 5 12 5 14 0 19 -2 13 -5z m2477
-24 c0 -5 -7 -9 -15 -9 -8 0 -15 -5 -15 -12 0 -6 -2 -9 -5 -6 -4 3 -3 18 1 32
5 21 9 24 20 15 8 -6 14 -15 14 -20z m-2527 14 c-7 -2 -19 -2 -25 0 -7 3 -2 5
12 5 14 0 19 -2 13 -5z m-118 -13 c-3 -5 -23 -9 -43 -9 l-37 2 35 7 c52 11 52
11 45 0z m-188 -6 c-3 -3 -12 -4 -19 -1 -8 3 -5 6 6 6 11 1 17 -2 13 -5z
m2283 -48 c0 -2 -8 -10 -17 -17 -16 -13 -17 -12 -4 4 13 16 21 21 21 13z m546
-26 c8 0 14 -9 14 -20 0 -11 -4 -20 -8 -20 -9 0 -33 45 -31 58 0 4 3 1 6 -5 2
-7 11 -13 19 -13z m54 -75 c-18 -21 -53 -18 -68 5 -13 21 -12 21 14 3 26 -17
27 -17 43 4 9 11 18 17 19 12 2 -6 -2 -16 -8 -24z"/>
<path d="M3338 3129 c-25 -14 -26 -107 -2 -116 27 -10 48 11 58 55 13 60 -12
87 -56 61z"/>
<path d="M1026 3113 c-9 -9 -7 -33 3 -33 12 0 22 28 12 34 -5 3 -11 3 -15 -1z"/>
<path d="M3220 3100 c-28 -28 -28 -95 0 -110 15 -8 24 -6 40 10 32 32 24 120
-12 120 -4 0 -17 -9 -28 -20z"/>
<path d="M1091 3068 c-5 -13 -12 -37 -15 -54 -6 -28 -4 -32 18 -36 22 -4 27 0
37 30 9 26 8 39 -2 58 -16 30 -27 30 -38 2z m20 -39 c-5 -13 -10 -19 -10 -12
-1 15 10 45 15 40 3 -2 0 -15 -5 -28z"/>
<path d="M3101 3076 c-7 -8 -11 -35 -9 -63 3 -41 6 -48 25 -51 29 -4 45 27 41
81 -2 34 -7 43 -24 45 -11 2 -26 -4 -33 -12z"/>
<path d="M2996 3057 c-17 -13 -40 -102 -30 -118 6 -10 155 -42 162 -34 10 9
-18 23 -60 30 -33 6 -37 9 -28 25 14 26 13 83 -2 98 -15 15 -20 15 -42 -1z"/>
<path d="M1007 3053 c-11 -10 -8 -43 3 -43 6 0 10 4 10 9 0 5 3 16 6 25 6 16
-7 22 -19 9z"/>
<path d="M680 3020 c-67 -15 -75 -19 -73 -39 4 -32 33 -71 53 -71 17 0 34 -31
31 -57 -1 -6 13 -23 31 -37 l33 -27 -30 7 c-16 3 -45 10 -62 14 -30 8 -54 -2
-36 -13 8 -5 185 -45 233 -52 14 -3 106 -23 204 -45 197 -44 210 -46 204 -28
-3 7 -49 22 -104 33 l-99 22 40 11 c22 6 101 22 175 37 74 14 145 30 158 35
42 18 14 28 -45 16 -55 -11 -60 -10 -147 25 -84 34 -114 40 -102 20 3 -4 38
-21 78 -37 55 -22 67 -30 49 -32 -13 -2 -26 1 -30 6 -5 8 -254 117 -436 191
-27 11 -42 20 -32 20 9 1 17 6 17 11 0 13 -18 11 -110 -10z m17 -26 c-3 -3
-12 -4 -19 -1 -8 3 -5 6 6 6 11 1 17 -2 13 -5z m88 -94 c39 -5 118 -25 177
-45 59 -19 115 -35 125 -36 10 0 13 -3 6 -6 -7 -2 -65 7 -128 21 -64 15 -149
29 -190 33 -60 5 -74 9 -78 24 -6 22 -6 22 88 9z m175 -105 c172 -24 176 -25
100 -41 -56 -12 -75 -12 -140 2 -113 23 -150 34 -150 44 0 14 58 12 190 -5z
m193 8 c-7 -2 -21 -2 -30 0 -10 3 -4 5 12 5 17 0 24 -2 18 -5z"/>
<path d="M815 3010 c3 -5 10 -10 16 -10 5 0 9 5 9 10 0 6 -7 10 -16 10 -8 0
-12 -4 -9 -10z"/>
<path d="M852 2999 c3 -9 252 -119 271 -119 17 0 5 18 -20 29 -45 21 -243 101
-249 101 -3 0 -4 -5 -2 -11z"/>
<path d="M3140 2901 c0 -10 36 -21 44 -14 3 3 3 10 0 14 -7 12 -44 12 -44 0z"/>
<path d="M3160 2869 c-30 -11 -90 -29 -132 -41 -73 -20 -89 -30 -70 -42 16
-10 292 80 292 95 0 14 -29 10 -90 -12z"/>
<path d="M575 2820 c-3 -6 1 -13 10 -16 19 -8 30 0 20 15 -8 14 -22 14 -30 1z"/>
<path d="M1441 2790 c-53 -13 -65 -32 -69 -109 -4 -66 -3 -71 23 -95 21 -20
24 -26 11 -26 -9 0 -16 7 -16 15 0 8 -4 15 -10 15 -15 0 -12 -36 4 -49 17 -14
91 0 112 21 10 10 15 47 17 123 2 123 2 123 -72 105z m52 -107 c-6 -95 -14
-113 -47 -113 -19 0 -19 1 4 13 20 10 26 21 28 52 l2 40 -15 -33 c-15 -34 -46
-54 -53 -34 -2 7 -8 9 -14 6 -8 -5 -9 12 -4 55 11 93 13 95 83 100 22 1 22 -1
16 -86z"/>
<path d="M1716 2781 c-12 -13 -16 -32 -14 -62 2 -36 7 -45 25 -47 27 -4 53 32
53 73 0 52 -33 71 -64 36z"/>
<path d="M2910 2785 c0 -8 7 -15 15 -15 8 0 15 7 15 15 0 8 -7 15 -15 15 -8 0
-15 -7 -15 -15z"/>
<path d="M1605 2760 c-24 -27 -26 -98 -3 -113 13 -9 21 -7 37 7 33 30 25 126
-9 126 -4 0 -15 -9 -25 -20z"/>
<path d="M2200 2695 c0 -8 7 -15 15 -15 8 0 15 7 15 15 0 8 -7 15 -15 15 -8 0
-15 -7 -15 -15z"/>
<path d="M2510 2650 c0 -5 7 -10 15 -10 8 0 15 5 15 10 0 6 -7 10 -15 10 -8 0
-15 -4 -15 -10z"/>
<path d="M310 2630 c0 -5 9 -10 20 -10 11 0 20 5 20 10 0 6 -9 10 -20 10 -11
0 -20 -4 -20 -10z"/>
<path d="M440 2630 c0 -5 14 -10 30 -10 17 0 30 5 30 10 0 6 -13 10 -30 10
-16 0 -30 -4 -30 -10z"/>
<path d="M4240 2630 c0 -5 14 -10 30 -10 17 0 30 5 30 10 0 6 -13 10 -30 10
-16 0 -30 -4 -30 -10z"/>
<path d="M4370 2630 c0 -5 14 -10 30 -10 17 0 30 5 30 10 0 6 -13 10 -30 10
-16 0 -30 -4 -30 -10z"/>
<path d="M4520 2630 c0 -5 9 -10 20 -10 11 0 20 5 20 10 0 6 -9 10 -20 10 -11
0 -20 -4 -20 -10z"/>
<path d="M605 2540 c-4 -6 13 -10 44 -10 28 0 51 5 51 10 0 6 -20 10 -44 10
-25 0 -48 -4 -51 -10z"/>
<path d="M4170 2541 c0 -12 88 -26 98 -17 11 12 -21 26 -60 26 -21 0 -38 -4
-38 -9z"/>
<path d="M480 2530 c0 -5 14 -10 30 -10 17 0 30 5 30 10 0 6 -13 10 -30 10
-16 0 -30 -4 -30 -10z"/>
<path d="M4330 2530 c0 -5 14 -10 30 -10 17 0 30 5 30 10 0 6 -13 10 -30 10
-16 0 -30 -4 -30 -10z"/>
<path d="M1811 2511 c-21 -6 -43 -31 -27 -31 25 0 106 24 106 31 0 10 -43 10
-79 0z"/>
<path d="M1710 2480 c0 -5 9 -10 20 -10 11 0 20 5 20 10 0 6 -9 10 -20 10 -11
0 -20 -4 -20 -10z"/>
<path d="M658 2452 c-21 -2 -38 -7 -38 -13 0 -10 33 -10 70 0 33 9 14 17 -32
13z"/>
<path d="M4160 2452 c0 -11 33 -22 68 -22 12 0 22 5 22 10 0 6 -10 10 -22 10
-13 0 -33 3 -45 6 -13 4 -23 2 -23 -4z"/>
<path d="M4286 2443 c-3 -3 -3 -10 0 -14 7 -12 34 -11 34 0 0 11 -26 22 -34
14z"/>
<path d="M550 2430 c0 -5 7 -10 15 -10 8 0 15 5 15 10 0 6 -7 10 -15 10 -8 0
-15 -4 -15 -10z"/>
<path d="M685 2363 c-11 -2 -30 -6 -42 -9 -42 -9 -23 -21 20 -13 23 4 45 8 50
9 4 0 7 5 7 10 0 10 -2 11 -35 3z"/>
<path d="M4150 2361 c0 -11 37 -21 75 -21 21 1 26 3 15 9 -22 12 -90 21 -90
12z"/>
<path d="M705 2273 c-30 -7 -43 -23 -18 -23 28 0 53 10 53 21 0 9 -3 10 -35 2z"/>
<path d="M4130 2271 c0 -12 48 -27 57 -17 9 8 2 13 -30 21 -17 5 -27 3 -27 -4z"/>
<path d="M3110 2220 c0 -5 7 -10 15 -10 8 0 15 5 15 10 0 6 -7 10 -15 10 -8 0
-15 -4 -15 -10z"/>
<path d="M1014 2185 c11 -42 65 -178 77 -190 18 -18 9 20 -21 90 -16 39 -30
77 -30 86 0 9 -7 23 -17 30 -15 13 -16 11 -9 -16z"/>
<path d="M735 2180 c-3 -5 1 -10 9 -10 9 0 16 5 16 10 0 6 -4 10 -9 10 -6 0
-13 -4 -16 -10z"/>
<path d="M4110 2180 c0 -5 7 -10 16 -10 8 0 12 5 9 10 -3 6 -10 10 -16 10 -5
0 -9 -4 -9 -10z"/>
<path d="M1110 2140 c0 -11 7 -23 16 -27 8 -3 13 -12 10 -20 -6 -15 47 -128
101 -211 23 -37 39 -52 49 -48 8 3 13 2 10 -3 -3 -5 1 -14 10 -21 8 -7 13 -19
10 -25 -5 -15 3 -27 29 -41 11 -6 20 -15 20 -20 0 -5 11 -24 24 -42 17 -24 29
-32 43 -29 15 4 18 1 13 -13 -4 -13 10 -31 52 -67 120 -103 276 -204 291 -188
4 3 -2 13 -12 21 -11 8 -15 14 -9 14 6 0 16 -7 23 -15 6 -8 15 -14 18 -13 20
2 25 -3 12 -12 -22 -13 -7 -23 96 -64 127 -50 246 -79 327 -80 37 -1 67 -4 67
-8 0 -12 102 -10 160 3 38 8 55 8 63 0 17 -17 45 -13 58 7 9 14 24 17 82 16
78 -2 181 21 287 63 88 36 244 121 288 159 59 51 21 46 -59 -7 -41 -27 -79
-47 -86 -44 -7 2 -15 -1 -19 -7 -4 -7 -3 -8 4 -4 7 4 12 5 12 2 0 -11 -62 -37
-76 -32 -8 3 -13 2 -10 -3 3 -5 -1 -12 -10 -15 -8 -3 -12 -2 -9 4 8 13 2 13
-42 -4 -229 -88 -535 -99 -807 -29 -55 14 -125 36 -157 49 -32 13 -67 24 -78
24 -11 0 -24 6 -28 13 -4 7 -37 29 -73 49 -36 20 -96 59 -133 87 -38 28 -73
49 -78 45 -5 -3 -8 -1 -7 5 5 17 -105 113 -140 123 -26 7 -32 13 -27 28 4 12
-11 42 -47 92 -29 40 -56 75 -60 76 -5 2 -8 7 -8 12 0 8 -63 118 -79 136 -5 7
-7 14 -4 18 6 6 -43 27 -70 29 -9 1 -20 9 -23 19 -7 24 -24 23 -24 -2z m107
-112 c2 -17 0 -19 -7 -8 -5 8 -6 18 -4 22 8 12 10 10 11 -14z m37 -55 c4 -10
4 -14 0 -10 -4 4 -14 1 -22 -6 -13 -11 -14 -9 -1 11 17 26 15 26 23 5z m22
-74 c1 -8 5 -23 9 -34 l7 -20 -13 20 c-6 11 -18 28 -26 37 -13 15 -13 16 3 14
9 -2 18 -9 20 -17z m88 -98 c3 -5 -2 -15 -11 -22 -12 -10 -14 -10 -9 -1 4 7 2
12 -6 12 -9 0 -9 3 2 10 18 12 18 12 24 1z m40 -17 c3 -8 2 -12 -3 -9 -5 3
-12 1 -16 -5 -3 -5 -10 -10 -16 -10 -7 0 16 32 27 39 1 1 5 -6 8 -15z m14 -79
c-3 -15 -6 -14 -23 6 -19 22 -19 23 -1 9 18 -14 19 -13 12 5 -5 15 -4 17 4 9
7 -7 10 -20 8 -29z m117 -125 c10 -11 16 -20 13 -20 -3 0 -13 9 -23 20 -10 11
-16 20 -13 20 3 0 13 -9 23 -20z m49 -31 c-3 -5 -10 -7 -15 -3 -5 3 -7 10 -3
15 3 5 10 7 15 3 5 -3 7 -10 3 -15z m69 -44 c-3 -9 -8 -14 -10 -11 -3 3 -2 9
2 15 9 16 15 13 8 -4z m261 -147 c-3 -4 -9 -8 -15 -8 -5 0 -9 4 -9 8 0 5 7 9
15 9 8 0 12 -4 9 -9z m41 -18 c3 -5 1 -10 -4 -10 -6 0 -11 5 -11 10 0 6 2 10
4 10 3 0 8 -4 11 -10z m145 -40 c0 -5 8 -10 17 -10 9 0 14 -2 11 -5 -3 -3 -19
-2 -37 1 -23 5 -29 9 -19 15 18 12 28 11 28 -1z m707 -6 c-3 -3 -12 -4 -19 -1
-8 3 -5 6 6 6 11 1 17 -2 13 -5z m-77 -14 c0 -5 -5 -10 -11 -10 -5 0 -7 5 -4
10 3 6 8 10 11 10 2 0 4 -4 4 -10z m37 4 c-3 -3 -12 -4 -19 -1 -8 3 -5 6 6 6
11 1 17 -2 13 -5z m-594 -11 c-7 -2 -19 -2 -25 0 -7 3 -2 5 12 5 14 0 19 -2
13 -5z m60 -10 c-7 -2 -21 -2 -30 0 -10 3 -4 5 12 5 17 0 24 -2 18 -5z m44 -9
c-3 -3 -12 -4 -19 -1 -8 3 -5 6 6 6 11 1 17 -2 13 -5z m168 -4 c-3 -5 -25 -9
-48 -8 l-42 1 45 7 c25 4 46 8 48 8 2 1 0 -2 -3 -8z m138 3 c-7 -2 -19 -2 -25
0 -7 3 -2 5 12 5 14 0 19 -2 13 -5z"/>
<path d="M506 2095 c-4 -14 -18 -31 -31 -37 -28 -13 -33 -28 -10 -28 9 0 24
-13 33 -30 21 -36 28 -37 36 -5 4 15 16 27 31 31 32 8 32 20 1 28 -15 4 -28
17 -34 36 -13 37 -18 37 -26 5z m26 -67 c-17 -17 -47 9 -30 29 10 12 13 12 27
-1 11 -12 12 -19 3 -28z"/>
<path d="M743 2090 c-13 -5 -23 -12 -23 -16 0 -8 53 5 65 17 12 12 -12 11 -42
-1z"/>
<path d="M4080 2091 c0 -11 59 -26 67 -17 3 3 -6 10 -21 16 -34 12 -46 13 -46
1z"/>
<path d="M760 1998 c-27 -13 -39 -23 -30 -25 22 -5 92 26 85 37 -3 6 -7 10 -8
9 -1 0 -22 -10 -47 -21z"/>
<path d="M4050 2005 c0 -9 74 -36 90 -32 9 2 0 10 -24 20 -38 17 -66 22 -66
12z"/>
<path d="M4500 1970 c0 -11 5 -20 10 -20 6 0 10 9 10 20 0 11 -4 20 -10 20 -5
0 -10 -9 -10 -20z"/>
<path d="M1120 1940 c0 -45 229 -347 301 -398 42 -29 29 -1 -23 50 -75 74
-166 191 -219 281 -41 71 -59 91 -59 67z"/>
<path d="M3990 1940 c0 -18 63 -150 71 -150 13 0 12 3 -22 85 -28 66 -49 94
-49 65z"/>
<path d="M803 1914 c-18 -8 -33 -19 -33 -24 0 -6 2 -10 5 -10 12 0 75 35 75
42 0 11 -8 9 -47 -8z"/>
<path d="M4500 1850 c0 -22 5 -40 10 -40 6 0 10 18 10 40 0 22 -4 40 -10 40
-5 0 -10 -18 -10 -40z"/>
<path d="M705 1869 c-4 -6 -5 -13 -2 -16 7 -7 27 6 27 18 0 12 -17 12 -25 -2z"/>
<path d="M4135 1870 c-4 -6 -4 -10 -1 -10 2 0 11 -3 20 -6 9 -3 16 -2 16 4 0
14 -28 23 -35 12z"/>
<path d="M838 1829 c-54 -28 -47 -43 7 -17 25 12 45 26 45 30 0 12 -11 9 -52
-13z"/>
<path d="M4496 1746 c-8 -41 -56 -86 -92 -86 -36 0 -29 -17 11 -24 38 -7 73
-45 82 -88 7 -34 23 -37 23 -4 0 33 44 83 80 91 34 8 40 25 9 25 -27 0 -89 62
-89 88 0 36 -17 33 -24 -2z m43 -67 l31 -31 -30 -30 -30 -30 -31 31 -30 31 28
29 c15 17 29 30 30 31 1 0 15 -14 32 -31z"/>
<path d="M708 1759 c-28 -16 -21 -30 7 -17 14 6 25 15 25 20 0 11 -11 10 -32
-3z"/>
<path d="M872 1739 c-59 -33 -72 -60 -14 -30 48 25 78 48 72 55 -3 3 -29 -8
-58 -25z"/>
<path d="M4070 1755 c0 -8 5 -15 10 -15 6 0 10 7 10 15 0 8 -4 15 -10 15 -5 0
-10 -7 -10 -15z"/>
<path d="M4142 1758 c3 -7 13 -15 24 -17 16 -3 17 -1 5 13 -16 19 -34 21 -29
4z"/>
<path d="M3710 1744 c0 -9 5 -14 12 -12 18 6 21 28 4 28 -9 0 -16 -7 -16 -16z"/>
<path d="M3381 1619 c-88 -84 -113 -123 -56 -85 76 50 191 178 158 176 -5 -1
-50 -41 -102 -91z"/>
<path d="M925 1663 c-21 -15 -34 -28 -28 -30 13 -5 83 38 83 50 0 13 -14 8
-55 -20z"/>
<path d="M720 1650 c-14 -11 -19 -20 -12 -20 19 0 52 19 52 30 0 15 -12 12
-40 -10z"/>
<path d="M3507 1632 c-15 -16 -24 -32 -20 -35 7 -8 63 41 63 55 0 15 -16 8
-43 -20z"/>
<path d="M4325 1650 c-3 -5 3 -10 15 -10 12 0 18 5 15 10 -3 6 -10 10 -15 10
-5 0 -12 -4 -15 -10z"/>
<path d="M4670 1650 c0 -5 9 -10 20 -10 11 0 20 5 20 10 0 6 -9 10 -20 10 -11
0 -20 -4 -20 -10z"/>
<path d="M4750 1650 c0 -5 5 -10 10 -10 6 0 10 5 10 10 0 6 -4 10 -10 10 -5 0
-10 -4 -10 -10z"/>
<path d="M4140 1640 c0 -5 7 -10 16 -10 8 0 12 5 9 10 -3 6 -10 10 -16 10 -5
0 -9 -4 -9 -10z"/>
<path d="M986 1589 c-38 -30 -32 -43 9 -17 33 22 45 38 26 38 -4 0 -20 -9 -35
-21z"/>
<path d="M806 1585 c-11 -8 -17 -17 -14 -21 8 -8 48 14 48 26 0 14 -12 12 -34
-5z"/>
<path d="M4030 1590 c0 -12 40 -34 48 -26 3 4 -3 13 -14 21 -22 17 -34 19 -34
5z"/>
<path d="M600 1580 c-8 -5 -11 -12 -7 -16 4 -4 15 0 24 9 18 18 8 23 -17 7z"/>
<path d="M3434 1559 c-35 -37 -218 -177 -251 -192 -23 -10 -31 -27 -13 -27 30
0 310 217 310 241 0 17 -16 9 -46 -22z"/>
<path d="M4240 1581 c0 -11 31 -24 39 -16 3 3 -1 10 -9 15 -19 12 -30 12 -30
1z"/>
<path d="M4190 1540 c0 -5 5 -10 10 -10 6 0 10 5 10 10 0 6 -4 10 -10 10 -5 0
-10 -4 -10 -10z"/>
<path d="M905 1529 c-4 -6 -5 -13 -2 -16 7 -7 27 6 27 18 0 12 -17 12 -25 -2z"/>
<path d="M1034 1505 c-21 -19 -33 -34 -26 -35 7 0 29 16 50 35 48 45 27 46
-24 0z"/>
<path d="M3781 1533 c0 -11 53 -52 75 -59 11 -3 1 10 -21 30 -39 35 -56 44
-54 29z"/>
<path d="M3942 1529 c2 -7 10 -15 17 -17 8 -3 12 1 9 9 -2 7 -10 15 -17 17 -8
3 -12 -1 -9 -9z"/>
<path d="M1469 1501 c13 -23 60 -55 69 -46 7 7 -56 64 -71 65 -4 0 -3 -8 2
-19z"/>
<path d="M4500 1465 c0 -14 5 -25 10 -25 6 0 10 11 10 25 0 14 -4 25 -10 25
-5 0 -10 -11 -10 -25z"/>
<path d="M3720 1468 c0 -7 12 -21 25 -31 18 -13 25 -14 25 -5 0 7 -12 21 -25
31 -18 13 -25 14 -25 5z"/>
<path d="M4190 1465 c0 -8 5 -15 10 -15 6 0 10 7 10 15 0 8 -4 15 -10 15 -5 0
-10 -7 -10 -15z"/>
<path d="M1116 1455 c-10 -7 -16 -19 -14 -25 2 -6 14 0 27 14 26 28 18 35 -13
11z"/>
<path d="M4343 1416 l-21 -22 22 -21 22 -21 21 22 21 22 -22 21 -22 21 -21
-22z"/>
<path d="M1190 1395 c-8 -9 -8 -15 -2 -15 12 0 26 19 19 26 -2 2 -10 -2 -17
-11z"/>
<path d="M3040 1400 c-8 -5 -10 -10 -5 -10 6 0 17 5 25 10 8 5 11 10 5 10 -5
0 -17 -5 -25 -10z"/>
<path d="M3660 1401 c0 -5 5 -13 10 -16 6 -3 10 -2 10 4 0 5 -4 13 -10 16 -5
3 -10 2 -10 -4z"/>
<path d="M4500 1394 c0 -8 5 -12 10 -9 6 3 10 10 10 16 0 5 -4 9 -10 9 -5 0
-10 -7 -10 -16z"/>
<path d="M4190 1375 c0 -14 5 -25 10 -25 6 0 10 11 10 25 0 14 -4 25 -10 25
-5 0 -10 -11 -10 -25z"/>
<path d="M1650 1375 c0 -8 7 -15 16 -15 14 0 14 3 4 15 -7 8 -14 15 -16 15 -2
0 -4 -7 -4 -15z"/>
<path d="M1250 1325 c-13 -14 -21 -27 -18 -30 2 -3 15 6 28 20 13 14 21 27 18
30 -2 3 -15 -6 -28 -20z"/>
<path d="M3590 1343 c0 -18 38 -59 46 -50 4 4 -4 20 -19 35 -15 14 -27 22 -27
15z"/>
<path d="M3115 1329 c-4 -6 -5 -12 -2 -15 7 -7 37 7 37 17 0 13 -27 11 -35 -2z"/>
<path d="M1740 1320 c0 -12 53 -40 75 -40 25 0 8 19 -32 35 -42 18 -43 18 -43
5z"/>
<path d="M4185 1298 c-7 -23 -21 -38 -45 -49 l-35 -17 38 -15 c28 -12 39 -23
43 -47 8 -38 15 -38 34 2 15 31 26 40 65 53 18 6 16 9 -15 23 -20 10 -41 30
-50 49 -8 18 -17 33 -20 33 -3 0 -10 -15 -15 -32z m40 -84 l-20 -20 -23 20
-22 20 21 22 20 22 23 -22 22 -21 -21 -21z"/>
<path d="M4500 1320 c0 -5 5 -10 10 -10 6 0 10 5 10 10 0 6 -4 10 -10 10 -5 0
-10 -4 -10 -10z"/>
<path d="M3004 1280 c-76 -36 -211 -75 -329 -95 -101 -18 -370 -21 -450 -6
-27 5 -52 7 -54 5 -37 -36 344 -47 530 -14 152 26 379 104 379 130 0 14 -6 12
-76 -20z"/>
<path d="M1309 1257 c-35 -44 -42 -57 -30 -57 14 0 73 78 63 84 -4 2 -19 -10
-33 -27z"/>
<path d="M3520 1284 c0 -14 66 -91 74 -84 3 3 -12 26 -34 50 -22 25 -39 40
-40 34z"/>
<path d="M1870 1261 c0 -6 48 -25 108 -44 129 -42 175 -51 170 -36 -2 6 -44
22 -93 34 -50 13 -110 30 -134 39 -51 19 -51 19 -51 7z"/>
<path d="M3990 1229 c0 -5 5 -7 10 -4 6 3 10 8 10 11 0 2 -4 4 -10 4 -5 0 -10
-5 -10 -11z"/>
<path d="M4048 1228 c9 -9 15 -9 24 0 9 9 7 12 -12 12 -19 0 -21 -3 -12 -12z"/>
<path d="M4325 1230 c4 -6 11 -8 16 -5 14 9 11 15 -7 15 -8 0 -12 -5 -9 -10z"/>
<path d="M1380 1194 c-12 -19 -20 -37 -17 -40 5 -5 57 58 57 69 0 18 -21 3
-40 -29z"/>
<path d="M3450 1223 c0 -11 44 -73 53 -73 11 0 9 8 -15 45 -21 32 -38 45 -38
28z"/>
<path d="M4500 1173 c-1 -27 -23 -51 -61 -67 -30 -13 -32 -15 -14 -21 39 -13
50 -22 65 -53 16 -33 30 -42 30 -18 0 22 40 66 61 66 29 0 23 15 -13 31 -23
10 -36 24 -43 47 -10 34 -25 43 -25 15z m33 -60 c14 -16 14 -20 -4 -42 l-20
-24 -20 22 c-20 21 -20 23 -3 42 21 23 27 24 47 2z"/>
<path d="M1457 1145 c-28 -41 -33 -55 -19 -55 11 0 54 70 49 83 -2 6 -15 -7
-30 -28z"/>
<path d="M3396 1130 c15 -22 31 -40 36 -40 10 0 6 9 -24 53 -30 43 -41 31 -12
-13z"/>
<path d="M1327 1124 c-4 -4 -7 -14 -7 -23 0 -11 3 -12 11 -4 6 6 10 16 7 23
-2 6 -7 8 -11 4z"/>
<path d="M1531 1084 c-28 -44 -38 -74 -27 -74 9 0 68 111 63 117 -3 3 -19 -17
-36 -43z"/>
<path d="M3300 1123 c0 -18 37 -83 48 -83 17 0 16 5 -13 50 -24 38 -35 48 -35
33z"/>
<path d="M3530 1105 c7 -9 15 -13 17 -11 7 7 -7 26 -19 26 -6 0 -6 -6 2 -15z"/>
<path d="M4190 1085 c0 -19 5 -35 10 -35 6 0 10 16 10 35 0 19 -4 35 -10 35
-5 0 -10 -16 -10 -35z"/>
<path d="M1611 1035 l-24 -45 -63 0 c-36 0 -64 -4 -64 -10 0 -19 413 -11 1005
19 105 6 252 13 328 17 75 4 137 11 137 15 0 13 -100 11 -385 -6 -470 -28
-718 -35 -728 -22 -7 9 -10 9 -14 0 -2 -8 -22 -13 -44 -13 -37 0 -39 2 -33 25
3 14 2 25 -4 25 -5 0 -13 -11 -16 -25 -6 -22 -12 -25 -51 -25 -47 0 -50 8 -18
55 15 22 17 35 5 35 -4 0 -18 -20 -31 -45z"/>
<path d="M3220 1065 c0 -8 9 -19 19 -25 25 -13 71 -13 71 0 0 6 -14 10 -30 10
-18 0 -33 6 -36 15 -8 19 -24 19 -24 0z"/>
<path d="M2975 1041 c-3 -5 -2 -12 2 -14 14 -8 173 5 173 14 0 12 -167 11
-175 0z"/>
<path d="M3485 1042 c11 -11 335 -31 341 -20 9 14 -18 18 -182 24 -117 5 -166
3 -159 -4z"/>
<path d="M1376 1015 c-10 -16 -26 -25 -42 -25 -14 0 -22 -4 -19 -10 3 -5 31
-10 61 -10 30 0 54 5 54 10 0 6 -9 10 -20 10 -17 0 -19 5 -14 25 3 14 4 25 1
25 -2 0 -12 -11 -21 -25z"/>
<path d="M3810 928 c-45 -56 -85 -109 -88 -117 -3 -9 -14 -22 -24 -29 -19 -14
-25 -42 -8 -42 5 0 14 9 20 20 6 11 21 31 35 46 32 34 165 211 165 218 0 20
-28 -6 -100 -96z"/>
<path d="M1105 843 c92 -179 111 -210 121 -201 3 3 -20 55 -50 114 -93 182
-131 247 -145 252 -8 3 26 -72 74 -165z"/>
<path d="M4190 995 c0 -8 5 -15 10 -15 6 0 10 7 10 15 0 8 -4 15 -10 15 -5 0
-10 -7 -10 -15z"/>
<path d="M1180 990 c0 -5 14 -10 30 -10 17 0 30 5 30 10 0 6 -13 10 -30 10
-16 0 -30 -4 -30 -10z"/>
<path d="M2960 929 c-11 -8 -12 -12 -2 -16 6 -2 12 -14 12 -24 0 -11 -4 -18
-9 -15 -5 3 -14 -1 -21 -9 -11 -13 -10 -18 6 -31 10 -9 13 -12 5 -8 -17 8 -30
-12 -32 -51 -1 -17 -5 -4 -10 30 -21 137 -14 125 -66 123 l-45 -1 6 -96 c10
-148 28 -281 37 -281 14 0 11 -28 -3 -33 -28 -12 19 -27 72 -25 l55 3 35 170
c25 122 36 159 38 133 2 -21 7 -38 13 -38 14 0 11 -40 -6 -56 -20 -20 -19 -34
2 -34 16 0 16 -1 0 -12 -11 -10 -17 -32 -18 -82 -3 -84 2 -88 113 -84 79 3 83
4 86 27 2 12 1 34 -2 47 -6 21 -12 24 -51 24 l-45 0 0 40 c0 39 1 40 34 40 30
0 34 3 39 33 6 42 -8 67 -38 67 -22 0 -25 4 -25 35 l0 35 49 0 c43 0 50 3 55
24 3 14 2 36 -4 50 -9 24 -14 26 -75 26 -51 0 -65 -3 -65 -15 0 -8 -4 -15 -9
-15 -5 0 -11 7 -15 15 -8 21 -26 19 -26 -2 0 -14 -2 -15 -9 -5 -11 18 -62 25
-81 11z"/>
<path d="M3270 924 c0 -8 5 -14 10 -14 6 0 10 -9 10 -20 0 -11 -7 -20 -15 -20
-22 0 -19 -40 3 -40 16 -1 16 -1 0 -14 -14 -10 -20 -41 -29 -160 -6 -81 -8
-150 -4 -154 11 -11 155 -18 165 -8 12 12 13 56 2 72 -4 6 -21 14 -37 18 l-30
7 7 87 c10 136 9 240 -2 247 -22 14 -80 13 -80 -1z"/>
<path d="M2620 905 c0 -8 5 -15 10 -15 6 0 10 -7 10 -15 0 -8 -6 -12 -13 -9
-9 3 -18 -19 -30 -73 -28 -131 -32 -164 -16 -174 11 -7 11 -9 -3 -9 -12 0 -20
-13 -26 -42 -10 -43 -10 -43 -13 27 -1 39 -2 79 -2 90 9 174 8 183 -12 205
-16 17 -27 20 -55 16 -19 -4 -45 -6 -58 -6 -12 0 -25 -7 -28 -15 -8 -21 -24
-19 -24 3 -1 15 -2 15 -15 -2 -8 -11 -15 -14 -15 -8 0 8 -20 12 -59 12 -48 0
-60 -3 -64 -17 -4 -17 -5 -16 -6 0 -1 12 -7 17 -18 15 -10 -2 -17 -10 -15 -16
1 -7 -2 -12 -8 -12 -5 0 -10 5 -10 10 0 6 -7 10 -15 10 -11 0 -15 -11 -15 -40
0 -36 4 -43 30 -54 17 -7 27 -16 23 -20 -5 -4 -1 -13 7 -19 19 -15 24 -38 8
-35 -14 3 -15 -1 -25 -144 -9 -121 -4 -132 58 -119 l34 7 8 144 c9 178 11 188
39 192 16 2 25 12 30 33 5 20 6 13 3 -20 -18 -216 -18 -213 2 -218 16 -4 16
-5 1 -6 -19 -1 -26 -41 -8 -41 6 0 10 -11 10 -25 0 -14 -4 -25 -10 -25 -15 0
-12 -30 3 -31 33 -3 73 4 79 15 4 6 8 41 8 79 0 41 4 67 11 67 7 0 9 -23 6
-70 -4 -62 -3 -72 15 -81 30 -16 78 -2 79 24 1 17 2 18 6 5 5 -20 38 -31 74
-26 17 2 27 13 35 38 15 46 44 53 44 12 0 -33 14 -42 66 -42 40 0 38 -20 23
220 -14 241 -6 220 -89 220 -56 0 -70 -3 -70 -15z m-178 -145 c2 -22 0 -40 -4
-40 -5 0 -8 18 -8 40 0 22 2 40 4 40 2 0 6 -18 8 -40z"/>
<path d="M1513 866 c-4 -5 -1 -12 5 -14 19 -6 14 -30 -8 -42 -23 -13 -28 -45
-5 -36 8 3 15 1 15 -4 0 -6 -8 -10 -18 -10 -16 0 -23 -22 -46 -150 -16 -83
-26 -153 -23 -156 3 -3 23 -10 44 -15 41 -9 63 6 63 43 0 11 7 18 20 18 15 0
20 -7 20 -29 0 -32 14 -41 66 -41 31 0 34 3 33 28 -1 74 -25 402 -29 405 -11
10 -131 13 -137 3z m62 -256 c3 -5 1 -10 -4 -10 -6 0 -11 5 -11 10 0 6 2 10 4
10 3 0 8 -4 11 -10z"/>
<path d="M1883 872 c-29 -2 -53 -7 -53 -13 0 -5 6 -9 14 -9 9 0 12 -7 9 -20
-3 -11 -9 -20 -13 -20 -5 0 -11 -35 -15 -77 -14 -179 -14 -172 3 -176 15 -4
15 -5 0 -6 -15 -1 -18 -11 -18 -56 0 -49 2 -55 24 -61 13 -3 35 -4 47 -2 22 3
24 9 27 63 1 33 5 71 8 84 9 43 17 12 15 -63 -2 -82 0 -85 65 -78 l32 4 4 86
c3 48 2 92 -2 97 -5 6 -4 30 0 55 15 77 12 145 -8 170 -19 24 -45 28 -139 22z
m55 -142 c-1 -42 -18 -57 -18 -16 0 25 9 56 16 56 2 0 3 -18 2 -40z"/>
<path d="M1710 848 c-1 -32 -9 -150 -15 -225 -4 -40 -2 -63 5 -63 6 0 6 -7 -2
-20 -10 -15 -10 -22 0 -32 16 -16 15 -45 0 -51 -21 -9 13 -27 49 -27 29 0 33
4 37 33 11 73 27 373 21 390 -5 12 -19 17 -51 17 -39 0 -44 -3 -44 -22z"/>
<path d="M4179 777 c-16 -21 -15 -24 1 -45 l19 -22 24 23 25 23 -25 22 c-13
12 -25 22 -26 22 -1 0 -9 -11 -18 -23z"/>
<path d="M3640 710 c0 -6 39 -85 87 -177 l86 -166 -96 8 c-78 5 -99 4 -111 -8
-13 -12 1 -15 107 -20 67 -3 123 -4 126 -1 7 6 -181 374 -191 374 -5 0 -8 -5
-8 -10z"/>
<path d="M1160 589 c-7 -11 -9 -24 -5 -27 7 -7 35 25 35 40 0 16 -19 8 -30
-13z"/>
<path d="M1051 451 c-45 -57 -80 -109 -78 -115 7 -21 377 -42 377 -21 0 8 -45
14 -161 19 -89 3 -167 9 -174 14 -10 5 5 31 56 95 39 49 68 94 66 100 -2 6
-40 -35 -86 -92z"/>
<path d="M2835 379 c-284 -12 -527 -28 -533 -34 -15 -15 24 -16 200 -5 106 7
390 14 631 17 324 4 436 8 427 17 -14 14 -455 17 -725 5z"/>
<path d="M2143 343 c-24 -2 -43 -9 -43 -14 0 -15 162 -7 168 9 4 12 -28 13
-125 5z"/>
<path d="M1973 333 c-25 -10 -12 -23 22 -23 24 0 35 5 35 15 0 15 -31 19 -57
8z"/>
<path d="M1538 323 c-83 -2 -138 -8 -138 -14 0 -13 320 -8 320 6 1 12 -4 12
-182 8z"/>
</g>
</svg>
